<svg xmlns="http://www.w3.org/2000/svg" version="1.1" xmlns:xlink="http://www.w3.org/1999/xlink" xmlns:svgjs="http://svgjs.com/svgjs" width="1440" height="560" preserveAspectRatio="none" viewBox="0 0 1440 560"><g mask="url(&quot;#SvgjsMask1000&quot;)" fill="none"><rect width="1440" height="560" x="0" y="0" fill="#0e2a47"></rect><path d="M-54.42 371.02L-54.42 371.02" stroke="#132e65" stroke-width="1.5"></path><path d="M-54.42 371.02L40.66 410.21" stroke="#132e65" stroke-width="1.5"></path><path d="M-54.42 371.02L-101 501.15" stroke="#132e65" stroke-width="1.5"></path><path d="M-54.42 371.02L100.58 544.14" stroke="#132e65" stroke-width="1.5"></path><path d="M-54.42 371.02L252.75 379.39" stroke="#132e65" stroke-width="1.5"></path><path d="M-54.42 371.02L217.95 530.09" stroke="#132e65" stroke-width="1.5"></path><path d="M-101 501.15L-101 501.15" stroke="#132e65" stroke-width="1.5"></path><path d="M-101 501.15L40.66 410.21" stroke="#132e65" stroke-width="1.5"></path><path d="M-101 501.15L-69.66 688.72" stroke="#132e65" stroke-width="1.5"></path><path d="M-69.66 688.72L-69.66 688.72" stroke="#132e65" stroke-width="1.5"></path><path d="M-69.66 688.72L88.22 680.11" stroke="#132e65" stroke-width="1.5"></path><path d="M-69.66 688.72L100.58 544.14" stroke="#132e65" stroke-width="1.5"></path><path d="M40.66 410.21L40.66 410.21" stroke="#132e65" stroke-width="1.5"></path><path d="M40.66 410.21L100.58 544.14" stroke="#132e65" stroke-width="1.5"></path><path d="M40.66 410.21L217.95 530.09" stroke="#132e65" stroke-width="1.5"></path><path d="M40.66 410.21L252.75 379.39" stroke="#132e65" stroke-width="1.5"></path><path d="M100.58 544.14L100.58 544.14" stroke="#132e65" stroke-width="1.5"></path><path d="M100.58 544.14L217.95 530.09" stroke="#132e65" stroke-width="1.5"></path><path d="M100.58 544.14L88.22 680.11" stroke="#132e65" stroke-width="1.5"></path><path d="M100.58 544.14L-101 501.15" stroke="#132e65" stroke-width="1.5"></path><path d="M100.58 544.14L252.75 379.39" stroke="#132e65" stroke-width="1.5"></path><path d="M88.22 680.11L88.22 680.11" stroke="#132e65" stroke-width="1.5"></path><path d="M88.22 680.11L255.12 710.66" stroke="#132e65" stroke-width="1.5"></path><path d="M88.22 680.11L217.95 530.09" stroke="#132e65" stroke-width="1.5"></path><path d="M88.22 680.11L340.54 661.34" stroke="#132e65" stroke-width="1.5"></path><path d="M88.22 680.11L-101 501.15" stroke="#132e65" stroke-width="1.5"></path><path d="M252.75 379.39L252.75 379.39" stroke="#132e65" stroke-width="1.5"></path><path d="M252.75 379.39L360.65 363.37" stroke="#132e65" stroke-width="1.5"></path><path d="M252.75 379.39L217.95 530.09" stroke="#132e65" stroke-width="1.5"></path><path d="M252.75 379.39L371.77 545.6" stroke="#132e65" stroke-width="1.5"></path><path d="M217.95 530.09L217.95 530.09" stroke="#132e65" stroke-width="1.5"></path><path d="M217.95 530.09L371.77 545.6" stroke="#132e65" stroke-width="1.5"></path><path d="M255.12 710.66L255.12 710.66" stroke="#132e65" stroke-width="1.5"></path><path d="M255.12 710.66L340.54 661.34" stroke="#132e65" stroke-width="1.5"></path><path d="M255.12 710.66L217.95 530.09" stroke="#132e65" stroke-width="1.5"></path><path d="M255.12 710.66L371.77 545.6" stroke="#132e65" stroke-width="1.5"></path><path d="M255.12 710.66L100.58 544.14" stroke="#132e65" stroke-width="1.5"></path><path d="M255.12 710.66L508.56 681.83" stroke="#132e65" stroke-width="1.5"></path><path d="M360.65 363.37L360.65 363.37" stroke="#132e65" stroke-width="1.5"></path><path d="M360.65 363.37L501.82 356.85" stroke="#132e65" stroke-width="1.5"></path><path d="M360.65 363.37L371.77 545.6" stroke="#132e65" stroke-width="1.5"></path><path d="M360.65 363.37L217.95 530.09" stroke="#132e65" stroke-width="1.5"></path><path d="M360.65 363.37L515.36 536.26" stroke="#132e65" stroke-width="1.5"></path><path d="M371.77 545.6L371.77 545.6" stroke="#132e65" stroke-width="1.5"></path><path d="M371.77 545.6L340.54 661.34" stroke="#132e65" stroke-width="1.5"></path><path d="M371.77 545.6L515.36 536.26" stroke="#132e65" stroke-width="1.5"></path><path d="M371.77 545.6L508.56 681.83" stroke="#132e65" stroke-width="1.5"></path><path d="M340.54 661.34L340.54 661.34" stroke="#132e65" stroke-width="1.5"></path><path d="M340.54 661.34L508.56 681.83" stroke="#132e65" stroke-width="1.5"></path><path d="M340.54 661.34L217.95 530.09" stroke="#132e65" stroke-width="1.5"></path><path d="M340.54 661.34L515.36 536.26" stroke="#132e65" stroke-width="1.5"></path><path d="M501.82 356.85L501.82 356.85" stroke="#132e65" stroke-width="1.5"></path><path d="M501.82 356.85L515.36 536.26" stroke="#132e65" stroke-width="1.5"></path><path d="M501.82 356.85L686.33 240.92" stroke="#132e65" stroke-width="1.5"></path><path d="M501.82 356.85L641.12 535.07" stroke="#132e65" stroke-width="1.5"></path><path d="M501.82 356.85L371.77 545.6" stroke="#132e65" stroke-width="1.5"></path><path d="M515.36 536.26L515.36 536.26" stroke="#132e65" stroke-width="1.5"></path><path d="M515.36 536.26L641.12 535.07" stroke="#132e65" stroke-width="1.5"></path><path d="M515.36 536.26L508.56 681.83" stroke="#132e65" stroke-width="1.5"></path><path d="M508.56 681.83L508.56 681.83" stroke="#132e65" stroke-width="1.5"></path><path d="M508.56 681.83L681.41 710.15" stroke="#132e65" stroke-width="1.5"></path><path d="M508.56 681.83L641.12 535.07" stroke="#132e65" stroke-width="1.5"></path><path d="M686.33 240.92L686.33 240.92" stroke="#132e65" stroke-width="1.5"></path><path d="M686.33 240.92L825.57 233.7" stroke="#132e65" stroke-width="1.5"></path><path d="M686.33 240.92L641.12 535.07" stroke="#132e65" stroke-width="1.5"></path><path d="M686.33 240.92L968.43 355.88" stroke="#132e65" stroke-width="1.5"></path><path d="M686.33 240.92L1001.42 191.06" stroke="#132e65" stroke-width="1.5"></path><path d="M641.12 535.07L641.12 535.07" stroke="#132e65" stroke-width="1.5"></path><path d="M681.41 710.15L681.41 710.15" stroke="#132e65" stroke-width="1.5"></path><path d="M681.41 710.15L844.91 710.83" stroke="#132e65" stroke-width="1.5"></path><path d="M825.57 233.7L825.57 233.7" stroke="#132e65" stroke-width="1.5"></path><path d="M825.57 233.7L1001.42 191.06" stroke="#132e65" stroke-width="1.5"></path><path d="M825.57 233.7L968.43 355.88" stroke="#132e65" stroke-width="1.5"></path><path d="M825.57 233.7L984.36 105.59" stroke="#132e65" stroke-width="1.5"></path><path d="M825.57 233.7L1113.26 220.65" stroke="#132e65" stroke-width="1.5"></path><path d="M825.57 233.7L857.73 523.54" stroke="#132e65" stroke-width="1.5"></path><path d="M857.73 523.54L857.73 523.54" stroke="#132e65" stroke-width="1.5"></path><path d="M857.73 523.54L995.49 522.05" stroke="#132e65" stroke-width="1.5"></path><path d="M857.73 523.54L947.15 658.02" stroke="#132e65" stroke-width="1.5"></path><path d="M844.91 710.83L844.91 710.83" stroke="#132e65" stroke-width="1.5"></path><path d="M844.91 710.83L947.15 658.02" stroke="#132e65" stroke-width="1.5"></path><path d="M844.91 710.83L857.73 523.54" stroke="#132e65" stroke-width="1.5"></path><path d="M948.27 -62.19L948.27 -62.19" stroke="#132e65" stroke-width="1.5"></path><path d="M948.27 -62.19L1119.08 -65.37" stroke="#132e65" stroke-width="1.5"></path><path d="M948.27 -62.19L984.36 105.59" stroke="#132e65" stroke-width="1.5"></path><path d="M984.36 105.59L984.36 105.59" stroke="#132e65" stroke-width="1.5"></path><path d="M984.36 105.59L1001.42 191.06" stroke="#132e65" stroke-width="1.5"></path><path d="M984.36 105.59L1113.26 220.65" stroke="#132e65" stroke-width="1.5"></path><path d="M984.36 105.59L1159.85 81.1" stroke="#132e65" stroke-width="1.5"></path><path d="M1001.42 191.06L1001.42 191.06" stroke="#132e65" stroke-width="1.5"></path><path d="M1001.42 191.06L1113.26 220.65" stroke="#132e65" stroke-width="1.5"></path><path d="M1001.42 191.06L968.43 355.88" stroke="#132e65" stroke-width="1.5"></path><path d="M1001.42 191.06L1159.85 81.1" stroke="#132e65" stroke-width="1.5"></path><path d="M968.43 355.88L968.43 355.88" stroke="#132e65" stroke-width="1.5"></path><path d="M968.43 355.88L995.49 522.05" stroke="#132e65" stroke-width="1.5"></path><path d="M968.43 355.88L1150.79 339.93" stroke="#132e65" stroke-width="1.5"></path><path d="M995.49 522.05L995.49 522.05" stroke="#132e65" stroke-width="1.5"></path><path d="M995.49 522.05L1106.69 522.94" stroke="#132e65" stroke-width="1.5"></path><path d="M995.49 522.05L947.15 658.02" stroke="#132e65" stroke-width="1.5"></path><path d="M995.49 522.05L1127.51 646.5" stroke="#132e65" stroke-width="1.5"></path><path d="M947.15 658.02L947.15 658.02" stroke="#132e65" stroke-width="1.5"></path><path d="M1119.08 -65.37L1119.08 -65.37" stroke="#132e65" stroke-width="1.5"></path><path d="M1119.08 -65.37L1159.85 81.1" stroke="#132e65" stroke-width="1.5"></path><path d="M1119.08 -65.37L1301.23 -106.68" stroke="#132e65" stroke-width="1.5"></path><path d="M1119.08 -65.37L1275.45 58.23" stroke="#132e65" stroke-width="1.5"></path><path d="M1119.08 -65.37L984.36 105.59" stroke="#132e65" stroke-width="1.5"></path><path d="M1159.85 81.1L1159.85 81.1" stroke="#132e65" stroke-width="1.5"></path><path d="M1159.85 81.1L1275.45 58.23" stroke="#132e65" stroke-width="1.5"></path><path d="M1159.85 81.1L1113.26 220.65" stroke="#132e65" stroke-width="1.5"></path><path d="M1113.26 220.65L1113.26 220.65" stroke="#132e65" stroke-width="1.5"></path><path d="M1113.26 220.65L1150.79 339.93" stroke="#132e65" stroke-width="1.5"></path><path d="M1113.26 220.65L1268.52 260.99" stroke="#132e65" stroke-width="1.5"></path><path d="M1150.79 339.93L1150.79 339.93" stroke="#132e65" stroke-width="1.5"></path><path d="M1150.79 339.93L1256.72 340.94" stroke="#132e65" stroke-width="1.5"></path><path d="M1150.79 339.93L1268.52 260.99" stroke="#132e65" stroke-width="1.5"></path><path d="M1106.69 522.94L1106.69 522.94" stroke="#132e65" stroke-width="1.5"></path><path d="M1106.69 522.94L1127.51 646.5" stroke="#132e65" stroke-width="1.5"></path><path d="M1106.69 522.94L1247 497.99" stroke="#132e65" stroke-width="1.5"></path><path d="M1106.69 522.94L1150.79 339.93" stroke="#132e65" stroke-width="1.5"></path><path d="M1127.51 646.5L1127.51 646.5" stroke="#132e65" stroke-width="1.5"></path><path d="M1127.51 646.5L947.15 658.02" stroke="#132e65" stroke-width="1.5"></path><path d="M1127.51 646.5L1247 497.99" stroke="#132e65" stroke-width="1.5"></path><path d="M1127.51 646.5L844.91 710.83" stroke="#132e65" stroke-width="1.5"></path><path d="M1127.51 646.5L857.73 523.54" stroke="#132e65" stroke-width="1.5"></path><path d="M1301.23 -106.68L1301.23 -106.68" stroke="#132e65" stroke-width="1.5"></path><path d="M1301.23 -106.68L1421.29 -72.7" stroke="#132e65" stroke-width="1.5"></path><path d="M1301.23 -106.68L1275.45 58.23" stroke="#132e65" stroke-width="1.5"></path><path d="M1301.23 -106.68L1398.92 93.34" stroke="#132e65" stroke-width="1.5"></path><path d="M1301.23 -106.68L1159.85 81.1" stroke="#132e65" stroke-width="1.5"></path><path d="M1275.45 58.23L1275.45 58.23" stroke="#132e65" stroke-width="1.5"></path><path d="M1275.45 58.23L1398.92 93.34" stroke="#132e65" stroke-width="1.5"></path><path d="M1268.52 260.99L1268.52 260.99" stroke="#132e65" stroke-width="1.5"></path><path d="M1268.52 260.99L1256.72 340.94" stroke="#132e65" stroke-width="1.5"></path><path d="M1256.72 340.94L1256.72 340.94" stroke="#132e65" stroke-width="1.5"></path><path d="M1256.72 340.94L1247 497.99" stroke="#132e65" stroke-width="1.5"></path><path d="M1256.72 340.94L1113.26 220.65" stroke="#132e65" stroke-width="1.5"></path><path d="M1256.72 340.94L1436.93 402.74" stroke="#132e65" stroke-width="1.5"></path><path d="M1247 497.99L1247 497.99" stroke="#132e65" stroke-width="1.5"></path><path d="M1247 497.99L1150.79 339.93" stroke="#132e65" stroke-width="1.5"></path><path d="M1421.29 -72.7L1421.29 -72.7" stroke="#132e65" stroke-width="1.5"></path><path d="M1421.29 -72.7L1398.92 93.34" stroke="#132e65" stroke-width="1.5"></path><path d="M1421.29 -72.7L1590.37 -80.71" stroke="#132e65" stroke-width="1.5"></path><path d="M1421.29 -72.7L1275.45 58.23" stroke="#132e65" stroke-width="1.5"></path><path d="M1421.29 -72.7L1603.47 56.35" stroke="#132e65" stroke-width="1.5"></path><path d="M1398.92 93.34L1398.92 93.34" stroke="#132e65" stroke-width="1.5"></path><path d="M1398.92 93.34L1414.16 219.02" stroke="#132e65" stroke-width="1.5"></path><path d="M1398.92 93.34L1603.47 56.35" stroke="#132e65" stroke-width="1.5"></path><path d="M1398.92 93.34L1268.52 260.99" stroke="#132e65" stroke-width="1.5"></path><path d="M1414.16 219.02L1414.16 219.02" stroke="#132e65" stroke-width="1.5"></path><path d="M1414.16 219.02L1268.52 260.99" stroke="#132e65" stroke-width="1.5"></path><path d="M1414.16 219.02L1436.93 402.74" stroke="#132e65" stroke-width="1.5"></path><path d="M1414.16 219.02L1561.37 346.2" stroke="#132e65" stroke-width="1.5"></path><path d="M1414.16 219.02L1256.72 340.94" stroke="#132e65" stroke-width="1.5"></path><path d="M1414.16 219.02L1275.45 58.23" stroke="#132e65" stroke-width="1.5"></path><path d="M1436.93 402.74L1436.93 402.74" stroke="#132e65" stroke-width="1.5"></path><path d="M1436.93 402.74L1561.37 346.2" stroke="#132e65" stroke-width="1.5"></path><path d="M1436.93 402.74L1573.5 527.35" stroke="#132e65" stroke-width="1.5"></path><path d="M1436.93 402.74L1247 497.99" stroke="#132e65" stroke-width="1.5"></path><path d="M1439.21 638.29L1439.21 638.29" stroke="#132e65" stroke-width="1.5"></path><path d="M1439.21 638.29L1550.32 646.5" stroke="#132e65" stroke-width="1.5"></path><path d="M1439.21 638.29L1573.5 527.35" stroke="#132e65" stroke-width="1.5"></path><path d="M1439.21 638.29L1436.93 402.74" stroke="#132e65" stroke-width="1.5"></path><path d="M1439.21 638.29L1247 497.99" stroke="#132e65" stroke-width="1.5"></path><path d="M1590.37 -80.71L1590.37 -80.71" stroke="#132e65" stroke-width="1.5"></path><path d="M1590.37 -80.71L1603.47 56.35" stroke="#132e65" stroke-width="1.5"></path><path d="M1590.37 -80.71L1398.92 93.34" stroke="#132e65" stroke-width="1.5"></path><path d="M1590.37 -80.71L1301.23 -106.68" stroke="#132e65" stroke-width="1.5"></path><path d="M1590.37 -80.71L1275.45 58.23" stroke="#132e65" stroke-width="1.5"></path><path d="M1603.47 56.35L1603.47 56.35" stroke="#132e65" stroke-width="1.5"></path><path d="M1603.47 56.35L1414.16 219.02" stroke="#132e65" stroke-width="1.5"></path><path d="M1603.47 56.35L1561.37 346.2" stroke="#132e65" stroke-width="1.5"></path><path d="M1603.47 56.35L1275.45 58.23" stroke="#132e65" stroke-width="1.5"></path><path d="M1561.37 346.2L1561.37 346.2" stroke="#132e65" stroke-width="1.5"></path><path d="M1561.37 346.2L1573.5 527.35" stroke="#132e65" stroke-width="1.5"></path><path d="M1573.5 527.35L1573.5 527.35" stroke="#132e65" stroke-width="1.5"></path><path d="M1573.5 527.35L1550.32 646.5" stroke="#132e65" stroke-width="1.5"></path><path d="M1550.32 646.5L1550.32 646.5" stroke="#132e65" stroke-width="1.5"></path><path d="M1550.32 646.5L1436.93 402.74" stroke="#132e65" stroke-width="1.5"></path><circle r="5" cx="-54.42" cy="371.02" fill="#132e65"></circle><circle r="5" cx="-101" cy="501.15" fill="#132e65"></circle><circle r="5" cx="-69.66" cy="688.72" fill="#132e65"></circle><circle r="5" cx="40.66" cy="410.21" fill="#132e65"></circle><circle r="5" cx="100.58" cy="544.14" fill="#132e65"></circle><circle r="5" cx="88.22" cy="680.11" fill="#132e65"></circle><circle r="5" cx="252.75" cy="379.39" fill="#132e65"></circle><circle r="5" cx="217.95" cy="530.09" fill="#132e65"></circle><circle r="5" cx="255.12" cy="710.66" fill="#132e65"></circle><circle r="5" cx="360.65" cy="363.37" fill="#132e65"></circle><circle r="5" cx="371.77" cy="545.6" fill="#132e65"></circle><circle r="5" cx="340.54" cy="661.34" fill="#132e65"></circle><circle r="5" cx="501.82" cy="356.85" fill="#132e65"></circle><circle r="5" cx="515.36" cy="536.26" fill="#132e65"></circle><circle r="5" cx="508.56" cy="681.83" fill="#132e65"></circle><circle r="5" cx="686.33" cy="240.92" fill="#132e65"></circle><circle r="5" cx="641.12" cy="535.07" fill="#132e65"></circle><circle r="5" cx="681.41" cy="710.15" fill="#132e65"></circle><circle r="5" cx="825.57" cy="233.7" fill="#132e65"></circle><circle r="5" cx="857.73" cy="523.54" fill="#132e65"></circle><circle r="5" cx="844.91" cy="710.83" fill="#132e65"></circle><circle r="5" cx="948.27" cy="-62.19" fill="#132e65"></circle><circle r="5" cx="984.36" cy="105.59" fill="#132e65"></circle><circle r="5" cx="1001.42" cy="191.06" fill="#132e65"></circle><circle r="5" cx="968.43" cy="355.88" fill="#132e65"></circle><circle r="5" cx="995.49" cy="522.05" fill="#132e65"></circle><circle r="5" cx="947.15" cy="658.02" fill="#132e65"></circle><circle r="5" cx="1119.08" cy="-65.37" fill="#132e65"></circle><circle r="5" cx="1159.85" cy="81.1" fill="#132e65"></circle><circle r="5" cx="1113.26" cy="220.65" fill="#132e65"></circle><circle r="5" cx="1150.79" cy="339.93" fill="#132e65"></circle><circle r="5" cx="1106.69" cy="522.94" fill="#132e65"></circle><circle r="5" cx="1127.51" cy="646.5" fill="#132e65"></circle><circle r="5" cx="1301.23" cy="-106.68" fill="#132e65"></circle><circle r="5" cx="1275.45" cy="58.23" fill="#132e65"></circle><circle r="5" cx="1268.52" cy="260.99" fill="#132e65"></circle><circle r="5" cx="1256.72" cy="340.94" fill="#132e65"></circle><circle r="5" cx="1247" cy="497.99" fill="#132e65"></circle><circle r="5" cx="1421.29" cy="-72.7" fill="#132e65"></circle><circle r="5" cx="1398.92" cy="93.34" fill="#132e65"></circle><circle r="5" cx="1414.16" cy="219.02" fill="#132e65"></circle><circle r="5" cx="1436.93" cy="402.74" fill="#132e65"></circle><circle r="5" cx="1439.21" cy="638.29" fill="#132e65"></circle><circle r="5" cx="1590.37" cy="-80.71" fill="#132e65"></circle><circle r="5" cx="1603.47" cy="56.35" fill="#132e65"></circle><circle r="5" cx="1561.37" cy="346.2" fill="#132e65"></circle><circle r="5" cx="1573.5" cy="527.35" fill="#132e65"></circle><circle r="5" cx="1550.32" cy="646.5" fill="#132e65"></circle><path d="M-95.7 504.46L-95.7 504.46" stroke="hsl(228.5, 77.2%, 51.5%)" stroke-width="1.5"></path><path d="M-95.7 504.46L-87.39 708.85" stroke="hsl(228.5, 77.2%, 51.5%)" stroke-width="1.5"></path><path d="M-95.7 504.46L44.22 665.28" stroke="hsl(228.5, 77.2%, 51.5%)" stroke-width="1.5"></path><path d="M-95.7 504.46L211.4 531.77" stroke="hsl(228.5, 77.2%, 51.5%)" stroke-width="1.5"></path><path d="M-95.7 504.46L221.12 641.16" stroke="hsl(228.5, 77.2%, 51.5%)" stroke-width="1.5"></path><path d="M-95.7 504.46L341.41 523.95" stroke="hsl(228.5, 77.2%, 51.5%)" stroke-width="1.5"></path><path d="M-95.7 504.46L387.84 644.71" stroke="hsl(228.5, 77.2%, 51.5%)" stroke-width="1.5"></path><path d="M511.72 705.54L511.72 705.54" stroke="hsl(228.5, 77.2%, 51.5%)" stroke-width="1.5"></path><path d="M511.72 705.54L638.63 695.23" stroke="hsl(228.5, 77.2%, 51.5%)" stroke-width="1.5"></path><path d="M511.72 705.54L387.84 644.71" stroke="hsl(228.5, 77.2%, 51.5%)" stroke-width="1.5"></path><path d="M511.72 705.54L511.15 493.43" stroke="hsl(228.5, 77.2%, 51.5%)" stroke-width="1.5"></path><path d="M511.72 705.54L653.43 523.4" stroke="hsl(228.5, 77.2%, 51.5%)" stroke-width="1.5"></path><path d="M1125.4 711.16L1125.4 711.16" stroke="hsl(228.5, 77.2%, 51.5%)" stroke-width="1.5"></path><path d="M1125.4 711.16L981.65 708.08" stroke="hsl(228.5, 77.2%, 51.5%)" stroke-width="1.5"></path><path d="M1125.4 711.16L1278.54 658.17" stroke="hsl(228.5, 77.2%, 51.5%)" stroke-width="1.5"></path><path d="M1125.4 711.16L1121.12 539.55" stroke="hsl(228.5, 77.2%, 51.5%)" stroke-width="1.5"></path><path d="M1125.4 711.16L1300.24 537.9" stroke="hsl(228.5, 77.2%, 51.5%)" stroke-width="1.5"></path><path d="M1125.4 711.16L960.01 507.71" stroke="hsl(228.5, 77.2%, 51.5%)" stroke-width="1.5"></path><path d="M1292.71 39.34L1292.71 39.34" stroke="hsl(228.5, 77.2%, 51.5%)" stroke-width="1.5"></path><path d="M1292.71 39.34L1396.78 55.24" stroke="hsl(228.5, 77.2%, 51.5%)" stroke-width="1.5"></path><path d="M1292.71 39.34L1241.84 -110.89" stroke="hsl(228.5, 77.2%, 51.5%)" stroke-width="1.5"></path><path d="M1292.71 39.34L1436.87 -62.86" stroke="hsl(228.5, 77.2%, 51.5%)" stroke-width="1.5"></path><path d="M1292.71 39.34L1270.75 221.72" stroke="hsl(228.5, 77.2%, 51.5%)" stroke-width="1.5"></path><path d="M1292.71 39.34L1390.9 199.4" stroke="hsl(228.5, 77.2%, 51.5%)" stroke-width="1.5"></path><path d="M1292.71 39.34L1134.89 202.24" stroke="hsl(228.5, 77.2%, 51.5%)" stroke-width="1.5"></path><path d="M1270.75 221.72L1270.75 221.72" stroke="hsl(228.5, 77.2%, 51.5%)" stroke-width="1.5"></path><path d="M1270.75 221.72L1287.27 342.4" stroke="hsl(228.5, 77.2%, 51.5%)" stroke-width="1.5"></path><path d="M1270.75 221.72L1390.9 199.4" stroke="hsl(228.5, 77.2%, 51.5%)" stroke-width="1.5"></path><path d="M1537.88 213.99L1537.88 213.99" stroke="hsl(228.5, 77.2%, 51.5%)" stroke-width="1.5"></path><path d="M1537.88 213.99L1548.27 105.13" stroke="hsl(228.5, 77.2%, 51.5%)" stroke-width="1.5"></path><path d="M1537.88 213.99L1390.9 199.4" stroke="hsl(228.5, 77.2%, 51.5%)" stroke-width="1.5"></path><path d="M1537.88 213.99L1538.39 374.84" stroke="hsl(228.5, 77.2%, 51.5%)" stroke-width="1.5"></path><path d="M-87.39 708.85L-87.39 708.85" stroke="hsl(228.5, 77.2%, 51.5%)" stroke-width="1.5"></path><path d="M-87.39 708.85L44.22 665.28" stroke="hsl(228.5, 77.2%, 51.5%)" stroke-width="1.5"></path><path d="M-87.39 708.85L221.12 641.16" stroke="hsl(228.5, 77.2%, 51.5%)" stroke-width="1.5"></path><path d="M-87.39 708.85L211.4 531.77" stroke="hsl(228.5, 77.2%, 51.5%)" stroke-width="1.5"></path><path d="M44.22 665.28L44.22 665.28" stroke="hsl(228.5, 77.2%, 51.5%)" stroke-width="1.5"></path><path d="M44.22 665.28L221.12 641.16" stroke="hsl(228.5, 77.2%, 51.5%)" stroke-width="1.5"></path><path d="M211.4 531.77L211.4 531.77" stroke="hsl(228.5, 77.2%, 51.5%)" stroke-width="1.5"></path><path d="M211.4 531.77L221.12 641.16" stroke="hsl(228.5, 77.2%, 51.5%)" stroke-width="1.5"></path><path d="M211.4 531.77L341.41 523.95" stroke="hsl(228.5, 77.2%, 51.5%)" stroke-width="1.5"></path><path d="M211.4 531.77L387.84 644.71" stroke="hsl(228.5, 77.2%, 51.5%)" stroke-width="1.5"></path><path d="M221.12 641.16L221.12 641.16" stroke="hsl(228.5, 77.2%, 51.5%)" stroke-width="1.5"></path><path d="M221.12 641.16L387.84 644.71" stroke="hsl(228.5, 77.2%, 51.5%)" stroke-width="1.5"></path><path d="M221.12 641.16L341.41 523.95" stroke="hsl(228.5, 77.2%, 51.5%)" stroke-width="1.5"></path><path d="M221.12 641.16L511.72 705.54" stroke="hsl(228.5, 77.2%, 51.5%)" stroke-width="1.5"></path><path d="M341.41 523.95L341.41 523.95" stroke="hsl(228.5, 77.2%, 51.5%)" stroke-width="1.5"></path><path d="M341.41 523.95L387.84 644.71" stroke="hsl(228.5, 77.2%, 51.5%)" stroke-width="1.5"></path><path d="M341.41 523.95L511.15 493.43" stroke="hsl(228.5, 77.2%, 51.5%)" stroke-width="1.5"></path><path d="M341.41 523.95L511.72 705.54" stroke="hsl(228.5, 77.2%, 51.5%)" stroke-width="1.5"></path><path d="M341.41 523.95L653.43 523.4" stroke="hsl(228.5, 77.2%, 51.5%)" stroke-width="1.5"></path><path d="M387.84 644.71L387.84 644.71" stroke="hsl(228.5, 77.2%, 51.5%)" stroke-width="1.5"></path><path d="M387.84 644.71L511.15 493.43" stroke="hsl(228.5, 77.2%, 51.5%)" stroke-width="1.5"></path><path d="M387.84 644.71L638.63 695.23" stroke="hsl(228.5, 77.2%, 51.5%)" stroke-width="1.5"></path><path d="M511.15 493.43L511.15 493.43" stroke="hsl(228.5, 77.2%, 51.5%)" stroke-width="1.5"></path><path d="M511.15 493.43L653.43 523.4" stroke="hsl(228.5, 77.2%, 51.5%)" stroke-width="1.5"></path><path d="M653.43 523.4L653.43 523.4" stroke="hsl(228.5, 77.2%, 51.5%)" stroke-width="1.5"></path><path d="M653.43 523.4L638.63 695.23" stroke="hsl(228.5, 77.2%, 51.5%)" stroke-width="1.5"></path><path d="M653.43 523.4L856.87 548.59" stroke="hsl(228.5, 77.2%, 51.5%)" stroke-width="1.5"></path><path d="M638.63 695.23L638.63 695.23" stroke="hsl(228.5, 77.2%, 51.5%)" stroke-width="1.5"></path><path d="M638.63 695.23L803.38 702.93" stroke="hsl(228.5, 77.2%, 51.5%)" stroke-width="1.5"></path><path d="M848.76 376.68L848.76 376.68" stroke="hsl(228.5, 77.2%, 51.5%)" stroke-width="1.5"></path><path d="M848.76 376.68L937.56 351.58" stroke="hsl(228.5, 77.2%, 51.5%)" stroke-width="1.5"></path><path d="M848.76 376.68L960.01 507.71" stroke="hsl(228.5, 77.2%, 51.5%)" stroke-width="1.5"></path><path d="M848.76 376.68L856.87 548.59" stroke="hsl(228.5, 77.2%, 51.5%)" stroke-width="1.5"></path><path d="M848.76 376.68L995.72 238.16" stroke="hsl(228.5, 77.2%, 51.5%)" stroke-width="1.5"></path><path d="M848.76 376.68L653.43 523.4" stroke="hsl(228.5, 77.2%, 51.5%)" stroke-width="1.5"></path><path d="M848.76 376.68L1162.4 396.39" stroke="hsl(228.5, 77.2%, 51.5%)" stroke-width="1.5"></path><path d="M856.87 548.59L856.87 548.59" stroke="hsl(228.5, 77.2%, 51.5%)" stroke-width="1.5"></path><path d="M856.87 548.59L960.01 507.71" stroke="hsl(228.5, 77.2%, 51.5%)" stroke-width="1.5"></path><path d="M856.87 548.59L803.38 702.93" stroke="hsl(228.5, 77.2%, 51.5%)" stroke-width="1.5"></path><path d="M803.38 702.93L803.38 702.93" stroke="hsl(228.5, 77.2%, 51.5%)" stroke-width="1.5"></path><path d="M995.72 238.16L995.72 238.16" stroke="hsl(228.5, 77.2%, 51.5%)" stroke-width="1.5"></path><path d="M995.72 238.16L937.56 351.58" stroke="hsl(228.5, 77.2%, 51.5%)" stroke-width="1.5"></path><path d="M995.72 238.16L1134.89 202.24" stroke="hsl(228.5, 77.2%, 51.5%)" stroke-width="1.5"></path><path d="M937.56 351.58L937.56 351.58" stroke="hsl(228.5, 77.2%, 51.5%)" stroke-width="1.5"></path><path d="M937.56 351.58L960.01 507.71" stroke="hsl(228.5, 77.2%, 51.5%)" stroke-width="1.5"></path><path d="M960.01 507.71L960.01 507.71" stroke="hsl(228.5, 77.2%, 51.5%)" stroke-width="1.5"></path><path d="M960.01 507.71L1121.12 539.55" stroke="hsl(228.5, 77.2%, 51.5%)" stroke-width="1.5"></path><path d="M981.65 708.08L981.65 708.08" stroke="hsl(228.5, 77.2%, 51.5%)" stroke-width="1.5"></path><path d="M981.65 708.08L803.38 702.93" stroke="hsl(228.5, 77.2%, 51.5%)" stroke-width="1.5"></path><path d="M1134.89 202.24L1134.89 202.24" stroke="hsl(228.5, 77.2%, 51.5%)" stroke-width="1.5"></path><path d="M1134.89 202.24L1270.75 221.72" stroke="hsl(228.5, 77.2%, 51.5%)" stroke-width="1.5"></path><path d="M1162.4 396.39L1162.4 396.39" stroke="hsl(228.5, 77.2%, 51.5%)" stroke-width="1.5"></path><path d="M1162.4 396.39L1287.27 342.4" stroke="hsl(228.5, 77.2%, 51.5%)" stroke-width="1.5"></path><path d="M1162.4 396.39L1121.12 539.55" stroke="hsl(228.5, 77.2%, 51.5%)" stroke-width="1.5"></path><path d="M1162.4 396.39L1134.89 202.24" stroke="hsl(228.5, 77.2%, 51.5%)" stroke-width="1.5"></path><path d="M1162.4 396.39L1300.24 537.9" stroke="hsl(228.5, 77.2%, 51.5%)" stroke-width="1.5"></path><path d="M1162.4 396.39L1270.75 221.72" stroke="hsl(228.5, 77.2%, 51.5%)" stroke-width="1.5"></path><path d="M1162.4 396.39L937.56 351.58" stroke="hsl(228.5, 77.2%, 51.5%)" stroke-width="1.5"></path><path d="M1121.12 539.55L1121.12 539.55" stroke="hsl(228.5, 77.2%, 51.5%)" stroke-width="1.5"></path><path d="M1121.12 539.55L1300.24 537.9" stroke="hsl(228.5, 77.2%, 51.5%)" stroke-width="1.5"></path><path d="M1121.12 539.55L1278.54 658.17" stroke="hsl(228.5, 77.2%, 51.5%)" stroke-width="1.5"></path><path d="M1121.12 539.55L981.65 708.08" stroke="hsl(228.5, 77.2%, 51.5%)" stroke-width="1.5"></path><path d="M1241.84 -110.89L1241.84 -110.89" stroke="hsl(228.5, 77.2%, 51.5%)" stroke-width="1.5"></path><path d="M1241.84 -110.89L1436.87 -62.86" stroke="hsl(228.5, 77.2%, 51.5%)" stroke-width="1.5"></path><path d="M1241.84 -110.89L1396.78 55.24" stroke="hsl(228.5, 77.2%, 51.5%)" stroke-width="1.5"></path><path d="M1241.84 -110.89L1543.48 -100.34" stroke="hsl(228.5, 77.2%, 51.5%)" stroke-width="1.5"></path><path d="M1287.27 342.4L1287.27 342.4" stroke="hsl(228.5, 77.2%, 51.5%)" stroke-width="1.5"></path><path d="M1287.27 342.4L1414.84 396.55" stroke="hsl(228.5, 77.2%, 51.5%)" stroke-width="1.5"></path><path d="M1287.27 342.4L1390.9 199.4" stroke="hsl(228.5, 77.2%, 51.5%)" stroke-width="1.5"></path><path d="M1300.24 537.9L1300.24 537.9" stroke="hsl(228.5, 77.2%, 51.5%)" stroke-width="1.5"></path><path d="M1300.24 537.9L1278.54 658.17" stroke="hsl(228.5, 77.2%, 51.5%)" stroke-width="1.5"></path><path d="M1278.54 658.17L1278.54 658.17" stroke="hsl(228.5, 77.2%, 51.5%)" stroke-width="1.5"></path><path d="M1278.54 658.17L1392.43 656.51" stroke="hsl(228.5, 77.2%, 51.5%)" stroke-width="1.5"></path><path d="M1278.54 658.17L1438.76 559.62" stroke="hsl(228.5, 77.2%, 51.5%)" stroke-width="1.5"></path><path d="M1436.87 -62.86L1436.87 -62.86" stroke="hsl(228.5, 77.2%, 51.5%)" stroke-width="1.5"></path><path d="M1436.87 -62.86L1543.48 -100.34" stroke="hsl(228.5, 77.2%, 51.5%)" stroke-width="1.5"></path><path d="M1436.87 -62.86L1396.78 55.24" stroke="hsl(228.5, 77.2%, 51.5%)" stroke-width="1.5"></path><path d="M1396.78 55.24L1396.78 55.24" stroke="hsl(228.5, 77.2%, 51.5%)" stroke-width="1.5"></path><path d="M1396.78 55.24L1390.9 199.4" stroke="hsl(228.5, 77.2%, 51.5%)" stroke-width="1.5"></path><path d="M1396.78 55.24L1548.27 105.13" stroke="hsl(228.5, 77.2%, 51.5%)" stroke-width="1.5"></path><path d="M1396.78 55.24L1270.75 221.72" stroke="hsl(228.5, 77.2%, 51.5%)" stroke-width="1.5"></path><path d="M1390.9 199.4L1390.9 199.4" stroke="hsl(228.5, 77.2%, 51.5%)" stroke-width="1.5"></path><path d="M1390.9 199.4L1548.27 105.13" stroke="hsl(228.5, 77.2%, 51.5%)" stroke-width="1.5"></path><path d="M1414.84 396.55L1414.84 396.55" stroke="hsl(228.5, 77.2%, 51.5%)" stroke-width="1.5"></path><path d="M1414.84 396.55L1538.39 374.84" stroke="hsl(228.5, 77.2%, 51.5%)" stroke-width="1.5"></path><path d="M1414.84 396.55L1438.76 559.62" stroke="hsl(228.5, 77.2%, 51.5%)" stroke-width="1.5"></path><path d="M1438.76 559.62L1438.76 559.62" stroke="hsl(228.5, 77.2%, 51.5%)" stroke-width="1.5"></path><path d="M1438.76 559.62L1392.43 656.51" stroke="hsl(228.5, 77.2%, 51.5%)" stroke-width="1.5"></path><path d="M1438.76 559.62L1300.24 537.9" stroke="hsl(228.5, 77.2%, 51.5%)" stroke-width="1.5"></path><path d="M1438.76 559.62L1589.43 541.06" stroke="hsl(228.5, 77.2%, 51.5%)" stroke-width="1.5"></path><path d="M1392.43 656.51L1392.43 656.51" stroke="hsl(228.5, 77.2%, 51.5%)" stroke-width="1.5"></path><path d="M1392.43 656.51L1300.24 537.9" stroke="hsl(228.5, 77.2%, 51.5%)" stroke-width="1.5"></path><path d="M1392.43 656.51L1609.92 706.62" stroke="hsl(228.5, 77.2%, 51.5%)" stroke-width="1.5"></path><path d="M1392.43 656.51L1589.43 541.06" stroke="hsl(228.5, 77.2%, 51.5%)" stroke-width="1.5"></path><path d="M1392.43 656.51L1414.84 396.55" stroke="hsl(228.5, 77.2%, 51.5%)" stroke-width="1.5"></path><path d="M1543.48 -100.34L1543.48 -100.34" stroke="hsl(228.5, 77.2%, 51.5%)" stroke-width="1.5"></path><path d="M1543.48 -100.34L1548.27 105.13" stroke="hsl(228.5, 77.2%, 51.5%)" stroke-width="1.5"></path><path d="M1548.27 105.13L1548.27 105.13" stroke="hsl(228.5, 77.2%, 51.5%)" stroke-width="1.5"></path><path d="M1548.27 105.13L1436.87 -62.86" stroke="hsl(228.5, 77.2%, 51.5%)" stroke-width="1.5"></path><path d="M1538.39 374.84L1538.39 374.84" stroke="hsl(228.5, 77.2%, 51.5%)" stroke-width="1.5"></path><path d="M1538.39 374.84L1589.43 541.06" stroke="hsl(228.5, 77.2%, 51.5%)" stroke-width="1.5"></path><path d="M1589.43 541.06L1589.43 541.06" stroke="hsl(228.5, 77.2%, 51.5%)" stroke-width="1.5"></path><path d="M1589.43 541.06L1609.92 706.62" stroke="hsl(228.5, 77.2%, 51.5%)" stroke-width="1.5"></path><path d="M1609.92 706.62L1609.92 706.62" stroke="hsl(228.5, 77.2%, 51.5%)" stroke-width="1.5"></path><path d="M1609.92 706.62L1438.76 559.62" stroke="hsl(228.5, 77.2%, 51.5%)" stroke-width="1.5"></path><path d="M1609.92 706.62L1278.54 658.17" stroke="hsl(228.5, 77.2%, 51.5%)" stroke-width="1.5"></path><path d="M1609.92 706.62L1538.39 374.84" stroke="hsl(228.5, 77.2%, 51.5%)" stroke-width="1.5"></path><circle r="25" cx="-95.7" cy="504.46" fill="url(#SvgjsRadialGradient1001)"></circle><circle r="25" cx="511.72" cy="705.54" fill="url(#SvgjsRadialGradient1001)"></circle><circle r="25" cx="1125.4" cy="711.16" fill="url(#SvgjsRadialGradient1001)"></circle><circle r="25" cx="1292.71" cy="39.34" fill="url(#SvgjsRadialGradient1001)"></circle><circle r="25" cx="1270.75" cy="221.72" fill="url(#SvgjsRadialGradient1001)"></circle><circle r="25" cx="1537.88" cy="213.99" fill="url(#SvgjsRadialGradient1001)"></circle><circle r="5" cx="-87.39" cy="708.85" fill="#8b9ad9"></circle><circle r="5" cx="44.22" cy="665.28" fill="#8b9ad9"></circle><circle r="5" cx="211.4" cy="531.77" fill="#8b9ad9"></circle><circle r="5" cx="221.12" cy="641.16" fill="#8b9ad9"></circle><circle r="5" cx="341.41" cy="523.95" fill="#8b9ad9"></circle><circle r="5" cx="387.84" cy="644.71" fill="#8b9ad9"></circle><circle r="5" cx="511.15" cy="493.43" fill="#8b9ad9"></circle><circle r="5" cx="653.43" cy="523.4" fill="#8b9ad9"></circle><circle r="5" cx="638.63" cy="695.23" fill="#8b9ad9"></circle><circle r="5" cx="848.76" cy="376.68" fill="#8b9ad9"></circle><circle r="5" cx="856.87" cy="548.59" fill="#8b9ad9"></circle><circle r="5" cx="803.38" cy="702.93" fill="#8b9ad9"></circle><circle r="5" cx="995.72" cy="238.16" fill="#8b9ad9"></circle><circle r="5" cx="937.56" cy="351.58" fill="#8b9ad9"></circle><circle r="5" cx="960.01" cy="507.71" fill="#8b9ad9"></circle><circle r="5" cx="981.65" cy="708.08" fill="#8b9ad9"></circle><circle r="5" cx="1134.89" cy="202.24" fill="#8b9ad9"></circle><circle r="5" cx="1162.4" cy="396.39" fill="#8b9ad9"></circle><circle r="5" cx="1121.12" cy="539.55" fill="#8b9ad9"></circle><circle r="5" cx="1241.84" cy="-110.89" fill="#8b9ad9"></circle><circle r="5" cx="1287.27" cy="342.4" fill="#8b9ad9"></circle><circle r="5" cx="1300.24" cy="537.9" fill="#8b9ad9"></circle><circle r="5" cx="1278.54" cy="658.17" fill="#8b9ad9"></circle><circle r="5" cx="1436.87" cy="-62.86" fill="#8b9ad9"></circle><circle r="5" cx="1396.78" cy="55.24" fill="#8b9ad9"></circle><circle r="5" cx="1390.9" cy="199.4" fill="#8b9ad9"></circle><circle r="5" cx="1414.84" cy="396.55" fill="#8b9ad9"></circle><circle r="5" cx="1438.76" cy="559.62" fill="#8b9ad9"></circle><circle r="5" cx="1392.43" cy="656.51" fill="#8b9ad9"></circle><circle r="5" cx="1543.48" cy="-100.34" fill="#8b9ad9"></circle><circle r="5" cx="1548.27" cy="105.13" fill="#8b9ad9"></circle><circle r="5" cx="1538.39" cy="374.84" fill="#8b9ad9"></circle><circle r="5" cx="1589.43" cy="541.06" fill="#8b9ad9"></circle><circle r="5" cx="1609.92" cy="706.62" fill="#8b9ad9"></circle></g><defs><mask id="SvgjsMask1000"><rect width="1440" height="560" fill="#ffffff"></rect></mask><radialGradient id="SvgjsRadialGradient1001"><stop stop-color="#ffffff" offset="0.1"></stop><stop stop-color="#1735b3" offset="0.2"></stop><stop stop-color="rgba(23, 53, 179, 0)" offset="1"></stop></radialGradient></defs></svg>