<svg xmlns="http://www.w3.org/2000/svg" version="1.1" xmlns:xlink="http://www.w3.org/1999/xlink" xmlns:svgjs="http://svgjs.com/svgjs" width="1440" height="560" preserveAspectRatio="none" viewBox="0 0 1440 560"><g mask="url(&quot;#SvgjsMask1002&quot;)" fill="none"><rect width="1440" height="560" x="0" y="0" fill="#0e2a47"></rect><path d="M 0,255 C 57.6,299.4 172.8,516 288,477 C 403.2,438 460.8,65.2 576,60 C 691.2,54.8 748.8,454 864,451 C 979.2,448 1036.8,68.4 1152,45 C 1267.2,21.6 1382.4,276.2 1440,334L1440 560L0 560z" fill="#184a7e"></path><path d="M 0,431 C 96,398.6 288,269.4 480,269 C 672,268.6 768,457.6 960,429 C 1152,400.4 1344,186.6 1440,126L1440 560L0 560z" fill="#2264ab"></path></g><defs><mask id="SvgjsMask1002"><rect width="1440" height="560" fill="#ffffff"></rect></mask></defs></svg>