<svg xmlns="http://www.w3.org/2000/svg" version="1.1" xmlns:xlink="http://www.w3.org/1999/xlink" xmlns:svgjs="http://svgjs.com/svgjs" width="1440" height="560" preserveAspectRatio="none" viewBox="0 0 1440 560"><g mask="url(&quot;#SvgjsMask1003&quot;)" fill="none"><rect width="1440" height="560" x="0" y="0" fill="#0e2a47"></rect><path d="M167 71L166 -176" stroke-width="8" stroke="url(#SvgjsLinearGradient1004)" stroke-linecap="round" class="Down"></path><path d="M1098 69L1097 -188" stroke-width="6" stroke="url(#SvgjsLinearGradient1005)" stroke-linecap="round" class="Up"></path><path d="M1317 183L1316 481" stroke-width="10" stroke="url(#SvgjsLinearGradient1004)" stroke-linecap="round" class="Down"></path><path d="M21 6L20 399" stroke-width="10" stroke="url(#SvgjsLinearGradient1004)" stroke-linecap="round" class="Down"></path><path d="M902 102L901 -76" stroke-width="8" stroke="url(#SvgjsLinearGradient1004)" stroke-linecap="round" class="Down"></path><path d="M343 506L342 799" stroke-width="6" stroke="url(#SvgjsLinearGradient1004)" stroke-linecap="round" class="Down"></path><path d="M1264 458L1263 275" stroke-width="6" stroke="url(#SvgjsLinearGradient1005)" stroke-linecap="round" class="Up"></path><path d="M185 483L184 771" stroke-width="8" stroke="url(#SvgjsLinearGradient1005)" stroke-linecap="round" class="Up"></path><path d="M704 273L703 560" stroke-width="8" stroke="url(#SvgjsLinearGradient1005)" stroke-linecap="round" class="Up"></path><path d="M1263 451L1262 651" stroke-width="6" stroke="url(#SvgjsLinearGradient1004)" stroke-linecap="round" class="Down"></path><path d="M1395 314L1394 614" stroke-width="6" stroke="url(#SvgjsLinearGradient1004)" stroke-linecap="round" class="Down"></path><path d="M1103 134L1102 -168" stroke-width="6" stroke="url(#SvgjsLinearGradient1004)" stroke-linecap="round" class="Down"></path><path d="M1307 62L1306 457" stroke-width="10" stroke="url(#SvgjsLinearGradient1004)" stroke-linecap="round" class="Down"></path><path d="M183 553L182 699" stroke-width="6" stroke="url(#SvgjsLinearGradient1004)" stroke-linecap="round" class="Down"></path><path d="M726 323L725 627" stroke-width="8" stroke="url(#SvgjsLinearGradient1004)" stroke-linecap="round" class="Down"></path><path d="M308 85L307 424" stroke-width="8" stroke="url(#SvgjsLinearGradient1005)" stroke-linecap="round" class="Up"></path><path d="M839 418L838 817" stroke-width="6" stroke="url(#SvgjsLinearGradient1004)" stroke-linecap="round" class="Down"></path><path d="M1130 55L1129 308" stroke-width="6" stroke="url(#SvgjsLinearGradient1005)" stroke-linecap="round" class="Up"></path><path d="M1329 197L1328 481" stroke-width="6" stroke="url(#SvgjsLinearGradient1004)" stroke-linecap="round" class="Down"></path><path d="M928 34L927 383" stroke-width="8" stroke="url(#SvgjsLinearGradient1004)" stroke-linecap="round" class="Down"></path><path d="M1154 211L1153 450" stroke-width="8" stroke="url(#SvgjsLinearGradient1005)" stroke-linecap="round" class="Up"></path><path d="M441 185L440 399" stroke-width="8" stroke="url(#SvgjsLinearGradient1005)" stroke-linecap="round" class="Up"></path><path d="M1233 208L1232 -165" stroke-width="6" stroke="url(#SvgjsLinearGradient1005)" stroke-linecap="round" class="Up"></path><path d="M778 76L777 288" stroke-width="6" stroke="url(#SvgjsLinearGradient1005)" stroke-linecap="round" class="Up"></path><path d="M459 336L458 -83" stroke-width="10" stroke="url(#SvgjsLinearGradient1004)" stroke-linecap="round" class="Down"></path><path d="M606 76L605 -69" stroke-width="10" stroke="url(#SvgjsLinearGradient1005)" stroke-linecap="round" class="Up"></path><path d="M281 122L280 -158" stroke-width="6" stroke="url(#SvgjsLinearGradient1005)" stroke-linecap="round" class="Up"></path><path d="M408 248L407 39" stroke-width="8" stroke="url(#SvgjsLinearGradient1005)" stroke-linecap="round" class="Up"></path><path d="M1347 415L1346 172" stroke-width="8" stroke="url(#SvgjsLinearGradient1004)" stroke-linecap="round" class="Down"></path><path d="M3 443L2 154" stroke-width="6" stroke="url(#SvgjsLinearGradient1004)" stroke-linecap="round" class="Down"></path><path d="M1082 181L1081 17" stroke-width="6" stroke="url(#SvgjsLinearGradient1004)" stroke-linecap="round" class="Down"></path><path d="M821 277L820 3" stroke-width="10" stroke="url(#SvgjsLinearGradient1005)" stroke-linecap="round" class="Up"></path><path d="M266 396L265 746" stroke-width="6" stroke="url(#SvgjsLinearGradient1005)" stroke-linecap="round" class="Up"></path><path d="M707 95L706 377" stroke-width="10" stroke="url(#SvgjsLinearGradient1005)" stroke-linecap="round" class="Up"></path><path d="M388 236L387 -43" stroke-width="6" stroke="url(#SvgjsLinearGradient1004)" stroke-linecap="round" class="Down"></path><path d="M347 340L346 705" stroke-width="8" stroke="url(#SvgjsLinearGradient1004)" stroke-linecap="round" class="Down"></path></g><defs><mask id="SvgjsMask1003"><rect width="1440" height="560" fill="#ffffff"></rect></mask><linearGradient x1="0%" y1="0%" x2="0%" y2="100%" id="SvgjsLinearGradient1004"><stop stop-color="rgba(28, 83, 142, 0)" offset="0"></stop><stop stop-color="#1c538e" offset="1"></stop></linearGradient><linearGradient x1="0%" y1="100%" x2="0%" y2="0%" id="SvgjsLinearGradient1005"><stop stop-color="rgba(28, 83, 142, 0)" offset="0"></stop><stop stop-color="#1c538e" offset="1"></stop></linearGradient></defs></svg>